<?xml version="1.0" encoding="UTF-8" standalone="no"?>
<!DOCTYPE svg PUBLIC "-//W3C//DTD SVG 1.1//EN"
 "http://www.w3.org/Graphics/SVG/1.1/DTD/svg11.dtd">
<!-- Generated by graphviz version 2.40.1 (20161225.0304)
 -->
<!-- Title: CK Pages: 1 -->
<svg width="2060pt" height="764pt"
 viewBox="0.00 0.00 2060.18 764.00" xmlns="http://www.w3.org/2000/svg" xmlns:xlink="http://www.w3.org/1999/xlink">
<g id="graph0" class="graph" transform="scale(1 1) rotate(0) translate(4 760)">
<title>CK</title>
<polygon fill="#ffffff" stroke="transparent" points="-4,4 -4,-760 2056.1837,-760 2056.1837,4 -4,4"/>
<!-- CK&#45;AspNet&#45;Tester.sln -->
<g id="node1" class="node">
<title>CK&#45;AspNet&#45;Tester.sln</title>
<ellipse fill="none" stroke="#000000" cx="98.1837" cy="-738" rx="98.3677" ry="18"/>
<text text-anchor="middle" x="98.1837" y="-733.8" font-family="Times,serif" font-size="14.00" fill="#000000">CK&#45;AspNet&#45;Tester.sln</text>
</g>
<!-- CK&#45;Auth&#45;Abstractions.sln -->
<g id="node2" class="node">
<title>CK&#45;Auth&#45;Abstractions.sln</title>
<ellipse fill="none" stroke="#000000" cx="1819.1837" cy="-522" rx="112.8578" ry="18"/>
<text text-anchor="middle" x="1819.1837" y="-517.8" font-family="Times,serif" font-size="14.00" fill="#000000">CK&#45;Auth&#45;Abstractions.sln</text>
</g>
<!-- CK&#45;MicroBenchmark.sln -->
<g id="node3" class="node">
<title>CK&#45;MicroBenchmark.sln</title>
<ellipse fill="none" stroke="#000000" cx="581.1837" cy="-738" rx="109.4105" ry="18"/>
<text text-anchor="middle" x="581.1837" y="-733.8" font-family="Times,serif" font-size="14.00" fill="#000000">CK&#45;MicroBenchmark.sln</text>
</g>
<!-- CK&#45;MQTTnet.sln -->
<g id="node4" class="node">
<title>CK&#45;MQTTnet.sln</title>
<ellipse fill="none" stroke="#000000" cx="789.1837" cy="-738" rx="80.4959" ry="18"/>
<text text-anchor="middle" x="789.1837" y="-733.8" font-family="Times,serif" font-size="14.00" fill="#000000">CK&#45;MQTTnet.sln</text>
</g>
<!-- CK&#45;Reflection.sln -->
<g id="node5" class="node">
<title>CK&#45;Reflection.sln</title>
<ellipse fill="none" stroke="#000000" cx="965.1837" cy="-234" rx="81.6359" ry="18"/>
<text text-anchor="middle" x="965.1837" y="-229.8" font-family="Times,serif" font-size="14.00" fill="#000000">CK&#45;Reflection.sln</text>
</g>
<!-- CK&#45;UnitsOfMeasure.sln -->
<g id="node6" class="node">
<title>CK&#45;UnitsOfMeasure.sln</title>
<ellipse fill="none" stroke="#000000" cx="993.1837" cy="-738" rx="105.8939" ry="18"/>
<text text-anchor="middle" x="993.1837" y="-733.8" font-family="Times,serif" font-size="14.00" fill="#000000">CK&#45;UnitsOfMeasure.sln</text>
</g>
<!-- CK&#45;WeakAssemblyNameResolver.sln -->
<g id="node7" class="node">
<title>CK&#45;WeakAssemblyNameResolver.sln</title>
<ellipse fill="none" stroke="#000000" cx="1263.1837" cy="-234" rx="159.7311" ry="18"/>
<text text-anchor="middle" x="1263.1837" y="-229.8" font-family="Times,serif" font-size="14.00" fill="#000000">CK&#45;WeakAssemblyNameResolver.sln</text>
</g>
<!-- json&#45;graph&#45;serializer.sln -->
<g id="node8" class="node">
<title>json&#45;graph&#45;serializer.sln</title>
<ellipse fill="none" stroke="#000000" cx="1221.1837" cy="-738" rx="104.7286" ry="18"/>
<text text-anchor="middle" x="1221.1837" y="-733.8" font-family="Times,serif" font-size="14.00" fill="#000000">json&#45;graph&#45;serializer.sln</text>
</g>
<!-- Yodii&#45;Script.sln -->
<g id="node9" class="node">
<title>Yodii&#45;Script.sln</title>
<ellipse fill="none" stroke="#000000" cx="314.1837" cy="-378" rx="72.989" ry="18"/>
<text text-anchor="middle" x="314.1837" y="-373.8" font-family="Times,serif" font-size="14.00" fill="#000000">Yodii&#45;Script.sln</text>
</g>
<!-- CK&#45;Text.sln -->
<g id="node10" class="node">
<title>CK&#45;Text.sln</title>
<ellipse fill="none" stroke="#000000" cx="853.1837" cy="-18" rx="59.0863" ry="18"/>
<text text-anchor="middle" x="853.1837" y="-13.8" font-family="Times,serif" font-size="14.00" fill="#000000">CK&#45;Text.sln</text>
</g>
<!-- CK&#45;Core.sln -->
<g id="node11" class="node">
<title>CK&#45;Core.sln</title>
<ellipse fill="none" stroke="#000000" cx="927.1837" cy="-90" rx="60.2303" ry="18"/>
<text text-anchor="middle" x="927.1837" y="-85.8" font-family="Times,serif" font-size="14.00" fill="#000000">CK&#45;Core.sln</text>
</g>
<!-- CK&#45;Core.sln&#45;&gt;CK&#45;Text.sln -->
<g id="edge1" class="edge">
<title>CK&#45;Core.sln&#45;&gt;CK&#45;Text.sln</title>
<path fill="none" stroke="#000000" d="M909.2703,-72.5708C899.999,-63.55 888.5258,-52.387 878.3767,-42.5121"/>
<polygon fill="#000000" stroke="#000000" points="880.5401,-39.7337 870.932,-35.2687 875.6586,-44.7508 880.5401,-39.7337"/>
</g>
<!-- CK&#45;ActivityMonitor.sln -->
<g id="node12" class="node">
<title>CK&#45;ActivityMonitor.sln</title>
<ellipse fill="none" stroke="#000000" cx="1489.1837" cy="-162" rx="104.7924" ry="18"/>
<text text-anchor="middle" x="1489.1837" y="-157.8" font-family="Times,serif" font-size="14.00" fill="#000000">CK&#45;ActivityMonitor.sln</text>
</g>
<!-- CK&#45;ActivityMonitor.sln&#45;&gt;CK&#45;Core.sln -->
<g id="edge2" class="edge">
<title>CK&#45;ActivityMonitor.sln&#45;&gt;CK&#45;Core.sln</title>
<path fill="none" stroke="#000000" d="M1405.0466,-151.2209C1292.4025,-136.7896 1094.9402,-111.4919 992.6913,-98.3924"/>
<polygon fill="#000000" stroke="#000000" points="992.8645,-94.8861 982.5008,-97.0869 991.9749,-101.8293 992.8645,-94.8861"/>
</g>
<!-- CK&#45;AmbientValues.sln -->
<g id="node13" class="node">
<title>CK&#45;AmbientValues.sln</title>
<ellipse fill="none" stroke="#000000" cx="1883.1837" cy="-234" rx="101.9036" ry="18"/>
<text text-anchor="middle" x="1883.1837" y="-229.8" font-family="Times,serif" font-size="14.00" fill="#000000">CK&#45;AmbientValues.sln</text>
</g>
<!-- CK&#45;AmbientValues.sln&#45;&gt;CK&#45;ActivityMonitor.sln -->
<g id="edge3" class="edge">
<title>CK&#45;AmbientValues.sln&#45;&gt;CK&#45;ActivityMonitor.sln</title>
<path fill="none" stroke="#000000" d="M1812.2893,-221.0447C1744.4714,-208.6516 1642.2558,-189.9726 1571.0126,-176.9535"/>
<polygon fill="#000000" stroke="#000000" points="1571.6386,-173.51 1561.1723,-175.1553 1570.3802,-180.396 1571.6386,-173.51"/>
</g>
<!-- CK&#45;CodeGen.sln -->
<g id="node14" class="node">
<title>CK&#45;CodeGen.sln</title>
<ellipse fill="none" stroke="#000000" cx="1131.1837" cy="-306" rx="77.6309" ry="18"/>
<text text-anchor="middle" x="1131.1837" y="-301.8" font-family="Times,serif" font-size="14.00" fill="#000000">CK&#45;CodeGen.sln</text>
</g>
<!-- CK&#45;CodeGen.sln&#45;&gt;CK&#45;WeakAssemblyNameResolver.sln -->
<g id="edge5" class="edge">
<title>CK&#45;CodeGen.sln&#45;&gt;CK&#45;WeakAssemblyNameResolver.sln</title>
<path fill="none" stroke="#000000" d="M1161.7989,-289.3008C1179.5508,-279.6179 1202.1517,-267.2902 1221.5074,-256.7325"/>
<polygon fill="#000000" stroke="#000000" points="1223.3243,-259.7283 1230.4273,-251.8671 1219.9723,-253.5831 1223.3243,-259.7283"/>
</g>
<!-- CK&#45;CodeGen.sln&#45;&gt;CK&#45;Text.sln -->
<g id="edge6" class="edge">
<title>CK&#45;CodeGen.sln&#45;&gt;CK&#45;Text.sln</title>
<path fill="none" stroke="#000000" d="M1073.1672,-293.9319C1063.491,-291.9377 1053.5556,-289.9015 1044.1837,-288 963.8013,-271.691 924.3596,-306.6335 863.1837,-252 805.4223,-200.4159 828.0702,-96.0719 843.4546,-46.0207"/>
<polygon fill="#000000" stroke="#000000" points="846.8819,-46.7939 846.5956,-36.2029 840.2148,-44.6608 846.8819,-46.7939"/>
</g>
<!-- CK&#45;CodeGen.sln&#45;&gt;CK&#45;ActivityMonitor.sln -->
<g id="edge4" class="edge">
<title>CK&#45;CodeGen.sln&#45;&gt;CK&#45;ActivityMonitor.sln</title>
<path fill="none" stroke="#000000" d="M1073.3004,-293.9532C997.6327,-278.1889 874.5816,-252.4902 874.1837,-252 864.1,-239.5774 863.3761,-227.7981 874.1837,-216 907.2415,-179.9123 1206.1729,-167.8316 1374.7746,-163.8713"/>
<polygon fill="#000000" stroke="#000000" points="1375.0236,-167.3666 1384.9409,-163.6386 1374.8634,-160.3684 1375.0236,-167.3666"/>
</g>
<!-- CK&#45;Monitoring.sln -->
<g id="node15" class="node">
<title>CK&#45;Monitoring.sln</title>
<ellipse fill="none" stroke="#000000" cx="1640.1837" cy="-234" rx="85.1744" ry="18"/>
<text text-anchor="middle" x="1640.1837" y="-229.8" font-family="Times,serif" font-size="14.00" fill="#000000">CK&#45;Monitoring.sln</text>
</g>
<!-- CK&#45;Monitoring.sln&#45;&gt;CK&#45;ActivityMonitor.sln -->
<g id="edge7" class="edge">
<title>CK&#45;Monitoring.sln&#45;&gt;CK&#45;ActivityMonitor.sln</title>
<path fill="none" stroke="#000000" d="M1605.5412,-217.4817C1584.2666,-207.3376 1556.7983,-194.2401 1533.8928,-183.3183"/>
<polygon fill="#000000" stroke="#000000" points="1535.246,-180.086 1524.7132,-178.9412 1532.2332,-186.4045 1535.246,-180.086"/>
</g>
<!-- CK&#45;SqlServer&#45;Parser&#45;Model.sln -->
<g id="node16" class="node">
<title>CK&#45;SqlServer&#45;Parser&#45;Model.sln</title>
<ellipse fill="none" stroke="#000000" cx="900.1837" cy="-306" rx="135.3862" ry="18"/>
<text text-anchor="middle" x="900.1837" y="-301.8" font-family="Times,serif" font-size="14.00" fill="#000000">CK&#45;SqlServer&#45;Parser&#45;Model.sln</text>
</g>
<!-- CK&#45;SqlServer&#45;Parser&#45;Model.sln&#45;&gt;CK&#45;ActivityMonitor.sln -->
<g id="edge8" class="edge">
<title>CK&#45;SqlServer&#45;Parser&#45;Model.sln&#45;&gt;CK&#45;ActivityMonitor.sln</title>
<path fill="none" stroke="#000000" d="M882.6502,-288.1125C865.4107,-268.3722 844.2249,-236.6646 863.1837,-216 896.9862,-179.1561 1203.4734,-167.3885 1374.712,-163.6767"/>
<polygon fill="#000000" stroke="#000000" points="1374.8572,-167.1745 1384.7811,-163.4644 1374.7095,-160.1761 1374.8572,-167.1745"/>
</g>
<!-- CK&#45;AspNet.sln -->
<g id="node17" class="node">
<title>CK&#45;AspNet.sln</title>
<ellipse fill="none" stroke="#000000" cx="1664.1837" cy="-306" rx="70.6843" ry="18"/>
<text text-anchor="middle" x="1664.1837" y="-301.8" font-family="Times,serif" font-size="14.00" fill="#000000">CK&#45;AspNet.sln</text>
</g>
<!-- CK&#45;AspNet.sln&#45;&gt;CK&#45;Monitoring.sln -->
<g id="edge9" class="edge">
<title>CK&#45;AspNet.sln&#45;&gt;CK&#45;Monitoring.sln</title>
<path fill="none" stroke="#000000" d="M1658.1275,-287.8314C1655.5325,-280.0463 1652.4413,-270.7729 1649.5619,-262.1347"/>
<polygon fill="#000000" stroke="#000000" points="1652.8042,-260.7933 1646.3214,-252.4133 1646.1634,-263.0069 1652.8042,-260.7933"/>
</g>
<!-- CK&#45;Testing.sln -->
<g id="node18" class="node">
<title>CK&#45;Testing.sln</title>
<ellipse fill="none" stroke="#000000" cx="1337.1837" cy="-306" rx="70.1222" ry="18"/>
<text text-anchor="middle" x="1337.1837" y="-301.8" font-family="Times,serif" font-size="14.00" fill="#000000">CK&#45;Testing.sln</text>
</g>
<!-- CK&#45;Testing.sln&#45;&gt;CK&#45;Reflection.sln -->
<g id="edge13" class="edge">
<title>CK&#45;Testing.sln&#45;&gt;CK&#45;Reflection.sln</title>
<path fill="none" stroke="#000000" d="M1282.6232,-294.4114C1272.1935,-292.244 1261.3569,-290.0248 1251.1837,-288 1230.5226,-283.8877 1115.4171,-262.2185 1037.68,-247.6111"/>
<polygon fill="#000000" stroke="#000000" points="1037.9216,-244.0953 1027.4472,-245.6885 1036.6289,-250.9749 1037.9216,-244.0953"/>
</g>
<!-- CK&#45;Testing.sln&#45;&gt;CK&#45;WeakAssemblyNameResolver.sln -->
<g id="edge14" class="edge">
<title>CK&#45;Testing.sln&#45;&gt;CK&#45;WeakAssemblyNameResolver.sln</title>
<path fill="none" stroke="#000000" d="M1319.2703,-288.5708C1310.2035,-279.749 1299.0309,-268.8784 1289.0502,-259.1674"/>
<polygon fill="#000000" stroke="#000000" points="1291.3129,-256.4856 1281.7048,-252.0206 1286.4314,-261.5027 1291.3129,-256.4856"/>
</g>
<!-- CK&#45;Testing.sln&#45;&gt;CK&#45;Core.sln -->
<g id="edge12" class="edge">
<title>CK&#45;Testing.sln&#45;&gt;CK&#45;Core.sln</title>
<path fill="none" stroke="#000000" d="M1280.0226,-295.477C1213.1973,-282.8364 1109.7009,-262.077 1094.1837,-252 1044.0862,-219.4663 1058.1192,-184.4706 1014.1837,-144 1000.1931,-131.1127 982.699,-119.5647 967.0743,-110.4878"/>
<polygon fill="#000000" stroke="#000000" points="968.5599,-107.3073 958.1313,-105.4376 965.1178,-113.4025 968.5599,-107.3073"/>
</g>
<!-- CK&#45;Testing.sln&#45;&gt;CK&#45;ActivityMonitor.sln -->
<g id="edge11" class="edge">
<title>CK&#45;Testing.sln&#45;&gt;CK&#45;ActivityMonitor.sln</title>
<path fill="none" stroke="#000000" d="M1373.7899,-290.4572C1392.7043,-281.1969 1415.2948,-268.102 1432.1837,-252 1451.0785,-233.9855 1466.4659,-208.4751 1476.4694,-189.2116"/>
<polygon fill="#000000" stroke="#000000" points="1479.7105,-190.5565 1481.0696,-180.0492 1473.4547,-187.4156 1479.7105,-190.5565"/>
</g>
<!-- CK&#45;Testing.sln&#45;&gt;CK&#45;Monitoring.sln -->
<g id="edge10" class="edge">
<title>CK&#45;Testing.sln&#45;&gt;CK&#45;Monitoring.sln</title>
<path fill="none" stroke="#000000" d="M1388.927,-293.7046C1439.9511,-281.58 1518.1514,-262.9978 1573.7444,-249.7876"/>
<polygon fill="#000000" stroke="#000000" points="1574.5828,-253.1859 1583.5027,-247.4687 1572.9645,-246.3755 1574.5828,-253.1859"/>
</g>
<!-- CK&#45;Crs.sln -->
<g id="node19" class="node">
<title>CK&#45;Crs.sln</title>
<ellipse fill="none" stroke="#000000" cx="1762.1837" cy="-378" rx="54.5119" ry="18"/>
<text text-anchor="middle" x="1762.1837" y="-373.8" font-family="Times,serif" font-size="14.00" fill="#000000">CK&#45;Crs.sln</text>
</g>
<!-- CK&#45;Crs.sln&#45;&gt;CK&#45;ActivityMonitor.sln -->
<g id="edge16" class="edge">
<title>CK&#45;Crs.sln&#45;&gt;CK&#45;ActivityMonitor.sln</title>
<path fill="none" stroke="#000000" d="M1764.9369,-359.8576C1768.8763,-326.5672 1771.9377,-255.5237 1734.1837,-216 1713.9912,-194.8611 1647.6129,-181.0436 1589.036,-172.6816"/>
<polygon fill="#000000" stroke="#000000" points="1589.3444,-169.1909 1578.9585,-171.2847 1588.3833,-176.1246 1589.3444,-169.1909"/>
</g>
<!-- CK&#45;Crs.sln&#45;&gt;CK&#45;AmbientValues.sln -->
<g id="edge17" class="edge">
<title>CK&#45;Crs.sln&#45;&gt;CK&#45;AmbientValues.sln</title>
<path fill="none" stroke="#000000" d="M1776.7791,-360.6302C1797.9223,-335.4681 1837.2111,-288.7112 1861.6768,-259.595"/>
<polygon fill="#000000" stroke="#000000" points="1864.4033,-261.7907 1868.1569,-251.8831 1859.0441,-257.2875 1864.4033,-261.7907"/>
</g>
<!-- CK&#45;Crs.sln&#45;&gt;CK&#45;AspNet.sln -->
<g id="edge15" class="edge">
<title>CK&#45;Crs.sln&#45;&gt;CK&#45;AspNet.sln</title>
<path fill="none" stroke="#000000" d="M1739.4542,-361.3008C1726.4086,-351.7163 1709.8358,-339.5403 1695.5637,-329.0547"/>
<polygon fill="#000000" stroke="#000000" points="1697.6016,-326.2089 1687.4704,-323.1086 1693.457,-331.85 1697.6016,-326.2089"/>
</g>
<!-- CK&#45;Globbing.sln -->
<g id="node20" class="node">
<title>CK&#45;Globbing.sln</title>
<ellipse fill="none" stroke="#000000" cx="927.1837" cy="-162" rx="77.6521" ry="18"/>
<text text-anchor="middle" x="927.1837" y="-157.8" font-family="Times,serif" font-size="14.00" fill="#000000">CK&#45;Globbing.sln</text>
</g>
<!-- CK&#45;Globbing.sln&#45;&gt;CK&#45;Core.sln -->
<g id="edge18" class="edge">
<title>CK&#45;Globbing.sln&#45;&gt;CK&#45;Core.sln</title>
<path fill="none" stroke="#000000" d="M927.1837,-143.8314C927.1837,-136.131 927.1837,-126.9743 927.1837,-118.4166"/>
<polygon fill="#000000" stroke="#000000" points="930.6838,-118.4132 927.1837,-108.4133 923.6838,-118.4133 930.6838,-118.4132"/>
</g>
<!-- CK&#45;Setup.sln -->
<g id="node21" class="node">
<title>CK&#45;Setup.sln</title>
<ellipse fill="none" stroke="#000000" cx="1527.1837" cy="-378" rx="63.1813" ry="18"/>
<text text-anchor="middle" x="1527.1837" y="-373.8" font-family="Times,serif" font-size="14.00" fill="#000000">CK&#45;Setup.sln</text>
</g>
<!-- CK&#45;Setup.sln&#45;&gt;CK&#45;WeakAssemblyNameResolver.sln -->
<g id="edge21" class="edge">
<title>CK&#45;Setup.sln&#45;&gt;CK&#45;WeakAssemblyNameResolver.sln</title>
<path fill="none" stroke="#000000" d="M1509.7452,-360.6238C1488.9916,-340.7558 1452.5534,-308.3579 1416.1837,-288 1391.0087,-273.9084 1361.4875,-262.4488 1335.1276,-253.7707"/>
<polygon fill="#000000" stroke="#000000" points="1336.1643,-250.4277 1325.573,-250.6997 1334.0222,-257.0919 1336.1643,-250.4277"/>
</g>
<!-- CK&#45;Setup.sln&#45;&gt;CK&#45;ActivityMonitor.sln -->
<g id="edge22" class="edge">
<title>CK&#45;Setup.sln&#45;&gt;CK&#45;ActivityMonitor.sln</title>
<path fill="none" stroke="#000000" d="M1525.1427,-359.9113C1521.6094,-329.8607 1513.7095,-267.8254 1503.1837,-216 1501.4759,-207.5914 1499.2734,-198.5355 1497.1232,-190.2873"/>
<polygon fill="#000000" stroke="#000000" points="1500.4378,-189.1344 1494.4687,-180.3811 1493.6764,-190.9463 1500.4378,-189.1344"/>
</g>
<!-- CK&#45;Setup.sln&#45;&gt;CK&#45;Monitoring.sln -->
<g id="edge20" class="edge">
<title>CK&#45;Setup.sln&#45;&gt;CK&#45;Monitoring.sln</title>
<path fill="none" stroke="#000000" d="M1536.9366,-359.9003C1547.4528,-341.0934 1565.249,-311.2207 1584.1837,-288 1592.5188,-277.7781 1602.6438,-267.4969 1611.9802,-258.689"/>
<polygon fill="#000000" stroke="#000000" points="1614.6083,-261.0262 1619.5807,-251.6707 1609.8594,-255.8834 1614.6083,-261.0262"/>
</g>
<!-- CK&#45;Setup.sln&#45;&gt;CK&#45;Testing.sln -->
<g id="edge19" class="edge">
<title>CK&#45;Setup.sln&#45;&gt;CK&#45;Testing.sln</title>
<path fill="none" stroke="#000000" d="M1488.7343,-363.4297C1459.1554,-352.2209 1418.0767,-336.6542 1386.1478,-324.5548"/>
<polygon fill="#000000" stroke="#000000" points="1387.1468,-321.1906 1376.5554,-320.9198 1384.6662,-327.7363 1387.1468,-321.1906"/>
</g>
<!-- CK&#45;Setup&#45;Dependency.sln -->
<g id="node22" class="node">
<title>CK&#45;Setup&#45;Dependency.sln</title>
<ellipse fill="none" stroke="#000000" cx="594.1837" cy="-306" rx="114.632" ry="18"/>
<text text-anchor="middle" x="594.1837" y="-301.8" font-family="Times,serif" font-size="14.00" fill="#000000">CK&#45;Setup&#45;Dependency.sln</text>
</g>
<!-- CK&#45;Setup&#45;Dependency.sln&#45;&gt;CK&#45;ActivityMonitor.sln -->
<g id="edge23" class="edge">
<title>CK&#45;Setup&#45;Dependency.sln&#45;&gt;CK&#45;ActivityMonitor.sln</title>
<path fill="none" stroke="#000000" d="M612.8432,-287.9698C636.3897,-266.4909 679.157,-231.5625 723.1837,-216 783.1423,-194.8058 1179.2607,-175.2066 1377.1221,-166.5989"/>
<polygon fill="#000000" stroke="#000000" points="1377.4209,-170.0893 1387.2601,-166.1599 1377.118,-163.0959 1377.4209,-170.0893"/>
</g>
<!-- CK&#45;SqlServer.sln -->
<g id="node23" class="node">
<title>CK&#45;SqlServer.sln</title>
<ellipse fill="none" stroke="#000000" cx="1914.1837" cy="-378" rx="79.3502" ry="18"/>
<text text-anchor="middle" x="1914.1837" y="-373.8" font-family="Times,serif" font-size="14.00" fill="#000000">CK&#45;SqlServer.sln</text>
</g>
<!-- CK&#45;SqlServer.sln&#45;&gt;CK&#45;ActivityMonitor.sln -->
<g id="edge24" class="edge">
<title>CK&#45;SqlServer.sln&#45;&gt;CK&#45;ActivityMonitor.sln</title>
<path fill="none" stroke="#000000" d="M1934.7827,-360.5899C1969.9884,-328.806 2034.2323,-260.5593 1994.1837,-216 1968.4518,-187.3699 1742.8363,-172.6721 1602.0112,-166.2212"/>
<polygon fill="#000000" stroke="#000000" points="1601.75,-162.706 1591.6025,-165.7523 1601.4349,-169.6989 1601.75,-162.706"/>
</g>
<!-- CK&#45;SqlServer&#45;Parser.sln -->
<g id="node24" class="node">
<title>CK&#45;SqlServer&#45;Parser.sln</title>
<ellipse fill="none" stroke="#000000" cx="1339.1837" cy="-378" rx="106.534" ry="18"/>
<text text-anchor="middle" x="1339.1837" y="-373.8" font-family="Times,serif" font-size="14.00" fill="#000000">CK&#45;SqlServer&#45;Parser.sln</text>
</g>
<!-- CK&#45;SqlServer&#45;Parser.sln&#45;&gt;CK&#45;ActivityMonitor.sln -->
<g id="edge26" class="edge">
<title>CK&#45;SqlServer&#45;Parser.sln&#45;&gt;CK&#45;ActivityMonitor.sln</title>
<path fill="none" stroke="#000000" d="M1369.9952,-360.6239C1385.0929,-351.1147 1402.8455,-338.3524 1416.1837,-324 1452.3434,-285.0907 1472.8858,-225.2338 1482.4608,-190.211"/>
<polygon fill="#000000" stroke="#000000" points="1485.9375,-190.7503 1485.0854,-180.1898 1479.1659,-188.9767 1485.9375,-190.7503"/>
</g>
<!-- CK&#45;SqlServer&#45;Parser.sln&#45;&gt;CK&#45;SqlServer&#45;Parser&#45;Model.sln -->
<g id="edge27" class="edge">
<title>CK&#45;SqlServer&#45;Parser.sln&#45;&gt;CK&#45;SqlServer&#45;Parser&#45;Model.sln</title>
<path fill="none" stroke="#000000" d="M1262.4647,-365.4174C1188.219,-353.2404 1075.4732,-334.7491 995.5023,-321.6331"/>
<polygon fill="#000000" stroke="#000000" points="995.8614,-318.1453 985.4267,-319.9806 994.7284,-325.053 995.8614,-318.1453"/>
</g>
<!-- CK&#45;SqlServer&#45;Parser.sln&#45;&gt;CK&#45;Testing.sln -->
<g id="edge25" class="edge">
<title>CK&#45;SqlServer&#45;Parser.sln&#45;&gt;CK&#45;Testing.sln</title>
<path fill="none" stroke="#000000" d="M1338.679,-359.8314C1338.4651,-352.131 1338.2107,-342.9743 1337.973,-334.4166"/>
<polygon fill="#000000" stroke="#000000" points="1341.4716,-334.3122 1337.6952,-324.4133 1334.4743,-334.5066 1341.4716,-334.3122"/>
</g>
<!-- CK&#45;Database.sln -->
<g id="node25" class="node">
<title>CK&#45;Database.sln</title>
<ellipse fill="none" stroke="#000000" cx="1128.1837" cy="-450" rx="76.9622" ry="18"/>
<text text-anchor="middle" x="1128.1837" y="-445.8" font-family="Times,serif" font-size="14.00" fill="#000000">CK&#45;Database.sln</text>
</g>
<!-- CK&#45;Database.sln&#45;&gt;CK&#45;Reflection.sln -->
<g id="edge33" class="edge">
<title>CK&#45;Database.sln&#45;&gt;CK&#45;Reflection.sln</title>
<path fill="none" stroke="#000000" d="M1136.7421,-431.7897C1146.0594,-412.8925 1162.0719,-382.9473 1180.1837,-360 1194.5972,-341.7384 1208.9912,-345.3713 1218.1837,-324 1224.5058,-309.302 1228.2476,-300.4386 1218.1837,-288 1215.2579,-284.3839 1110.117,-262.824 1036.3123,-248.0651"/>
<polygon fill="#000000" stroke="#000000" points="1036.6117,-244.5559 1026.12,-246.0302 1035.2412,-251.4204 1036.6117,-244.5559"/>
</g>
<!-- CK&#45;Database.sln&#45;&gt;Yodii&#45;Script.sln -->
<g id="edge32" class="edge">
<title>CK&#45;Database.sln&#45;&gt;Yodii&#45;Script.sln</title>
<path fill="none" stroke="#000000" d="M1053.3823,-445.8099C926.4347,-438.3285 660.8017,-421.0711 437.1837,-396 420.5771,-394.1381 402.764,-391.7559 385.9932,-389.3384"/>
<polygon fill="#000000" stroke="#000000" points="386.1074,-385.8179 375.7059,-387.8329 385.0937,-392.7441 386.1074,-385.8179"/>
</g>
<!-- CK&#45;Database.sln&#45;&gt;CK&#45;Core.sln -->
<g id="edge36" class="edge">
<title>CK&#45;Database.sln&#45;&gt;CK&#45;Core.sln</title>
<path fill="none" stroke="#000000" d="M1052.3361,-447.2759C958.2011,-442.5416 793.3259,-429.7969 656.1837,-396 559.5692,-372.1906 451.1837,-405.5049 451.1837,-306 451.1837,-306 451.1837,-306 451.1837,-234 451.1837,-149.7494 727.8353,-110.2653 859.3193,-96.2574"/>
<polygon fill="#000000" stroke="#000000" points="859.711,-99.7356 869.2926,-95.2142 858.9827,-92.7736 859.711,-99.7356"/>
</g>
<!-- CK&#45;Database.sln&#45;&gt;CK&#45;ActivityMonitor.sln -->
<g id="edge38" class="edge">
<title>CK&#45;Database.sln&#45;&gt;CK&#45;ActivityMonitor.sln</title>
<path fill="none" stroke="#000000" d="M1052.3473,-446.9552C927.1695,-438.5465 696.7228,-406.9218 756.1837,-288 780.0351,-240.2972 802.3454,-234.9892 852.1837,-216 944.7257,-180.7399 1217.7926,-168.3982 1374.7274,-164.1567"/>
<polygon fill="#000000" stroke="#000000" points="1374.989,-167.6511 1384.8933,-163.8889 1374.8046,-160.6535 1374.989,-167.6511"/>
</g>
<!-- CK&#45;Database.sln&#45;&gt;CK&#45;CodeGen.sln -->
<g id="edge37" class="edge">
<title>CK&#45;Database.sln&#45;&gt;CK&#45;CodeGen.sln</title>
<path fill="none" stroke="#000000" d="M1128.5636,-431.7623C1129.0753,-407.201 1129.991,-363.2474 1130.593,-334.3541"/>
<polygon fill="#000000" stroke="#000000" points="1134.0977,-334.1604 1130.8068,-324.0896 1127.0992,-334.0145 1134.0977,-334.1604"/>
</g>
<!-- CK&#45;Database.sln&#45;&gt;CK&#45;SqlServer&#45;Parser&#45;Model.sln -->
<g id="edge31" class="edge">
<title>CK&#45;Database.sln&#45;&gt;CK&#45;SqlServer&#45;Parser&#45;Model.sln</title>
<path fill="none" stroke="#000000" d="M1101.1337,-432.9158C1060.2424,-407.0897 982.604,-358.0549 936.7243,-329.0783"/>
<polygon fill="#000000" stroke="#000000" points="938.5916,-326.118 928.2677,-323.7373 934.8536,-332.0365 938.5916,-326.118"/>
</g>
<!-- CK&#45;Database.sln&#45;&gt;CK&#45;Testing.sln -->
<g id="edge28" class="edge">
<title>CK&#45;Database.sln&#45;&gt;CK&#45;Testing.sln</title>
<path fill="none" stroke="#000000" d="M1145.3844,-432.4351C1167.971,-409.5985 1206.6871,-371.295 1223.1837,-360 1243.3198,-346.2131 1267.526,-334.197 1288.4438,-325.0225"/>
<polygon fill="#000000" stroke="#000000" points="1289.9861,-328.1694 1297.7969,-321.0109 1287.2269,-321.7361 1289.9861,-328.1694"/>
</g>
<!-- CK&#45;Database.sln&#45;&gt;CK&#45;Setup.sln -->
<g id="edge29" class="edge">
<title>CK&#45;Database.sln&#45;&gt;CK&#45;Setup.sln</title>
<path fill="none" stroke="#000000" d="M1194.2391,-440.7035C1260.4952,-431.0009 1365.3168,-414.6214 1455.1837,-396 1460.1811,-394.9645 1465.3557,-393.8185 1470.533,-392.621"/>
<polygon fill="#000000" stroke="#000000" points="1471.5242,-395.9831 1480.4469,-390.2702 1469.9091,-389.172 1471.5242,-395.9831"/>
</g>
<!-- CK&#45;Database.sln&#45;&gt;CK&#45;Setup&#45;Dependency.sln -->
<g id="edge35" class="edge">
<title>CK&#45;Database.sln&#45;&gt;CK&#45;Setup&#45;Dependency.sln</title>
<path fill="none" stroke="#000000" d="M1055.1085,-444.4229C955.3261,-436.0975 782.1063,-418.9121 723.1837,-396 684.3108,-380.8843 645.9044,-351.7694 621.2449,-330.7401"/>
<polygon fill="#000000" stroke="#000000" points="623.2731,-327.8658 613.4283,-323.9503 618.6826,-333.1505 623.2731,-327.8658"/>
</g>
<!-- CK&#45;Database.sln&#45;&gt;CK&#45;SqlServer.sln -->
<g id="edge34" class="edge">
<title>CK&#45;Database.sln&#45;&gt;CK&#45;SqlServer.sln</title>
<path fill="none" stroke="#000000" d="M1204.1763,-447.2221C1332.7701,-441.8291 1601.2568,-427.5793 1826.1837,-396 1833.1908,-395.0162 1840.4785,-393.8157 1847.7273,-392.5062"/>
<polygon fill="#000000" stroke="#000000" points="1848.3742,-395.9459 1857.5579,-390.663 1847.0841,-389.0658 1848.3742,-395.9459"/>
</g>
<!-- CK&#45;Database.sln&#45;&gt;CK&#45;SqlServer&#45;Parser.sln -->
<g id="edge30" class="edge">
<title>CK&#45;Database.sln&#45;&gt;CK&#45;SqlServer&#45;Parser.sln</title>
<path fill="none" stroke="#000000" d="M1171.903,-435.0816C1203.9004,-424.163 1247.6045,-409.2498 1282.3167,-397.4048"/>
<polygon fill="#000000" stroke="#000000" points="1283.5179,-400.6932 1291.8517,-394.1512 1281.2572,-394.0683 1283.5179,-400.6932"/>
</g>
<!-- CKSetupRemoteStore.sln -->
<g id="node26" class="node">
<title>CKSetupRemoteStore.sln</title>
<ellipse fill="none" stroke="#000000" cx="1454.1837" cy="-738" rx="110.5911" ry="18"/>
<text text-anchor="middle" x="1454.1837" y="-733.8" font-family="Times,serif" font-size="14.00" fill="#000000">CKSetupRemoteStore.sln</text>
</g>
<!-- CK&#45;SqlServer&#45;Dapper.sln -->
<g id="node27" class="node">
<title>CK&#45;SqlServer&#45;Dapper.sln</title>
<ellipse fill="none" stroke="#000000" cx="1913.1837" cy="-450" rx="111.1128" ry="18"/>
<text text-anchor="middle" x="1913.1837" y="-445.8" font-family="Times,serif" font-size="14.00" fill="#000000">CK&#45;SqlServer&#45;Dapper.sln</text>
</g>
<!-- CK&#45;SqlServer&#45;Dapper.sln&#45;&gt;CK&#45;SqlServer.sln -->
<g id="edge39" class="edge">
<title>CK&#45;SqlServer&#45;Dapper.sln&#45;&gt;CK&#45;SqlServer.sln</title>
<path fill="none" stroke="#000000" d="M1913.436,-431.8314C1913.543,-424.131 1913.6701,-414.9743 1913.789,-406.4166"/>
<polygon fill="#000000" stroke="#000000" points="1917.2886,-406.4609 1913.9279,-396.4133 1910.2893,-406.3637 1917.2886,-406.4609"/>
</g>
<!-- CK&#45;DB.sln -->
<g id="node28" class="node">
<title>CK&#45;DB.sln</title>
<ellipse fill="none" stroke="#000000" cx="1128.1837" cy="-522" rx="54.5139" ry="18"/>
<text text-anchor="middle" x="1128.1837" y="-517.8" font-family="Times,serif" font-size="14.00" fill="#000000">CK&#45;DB.sln</text>
</g>
<!-- CK&#45;DB.sln&#45;&gt;CK&#45;Database.sln -->
<g id="edge40" class="edge">
<title>CK&#45;DB.sln&#45;&gt;CK&#45;Database.sln</title>
<path fill="none" stroke="#000000" d="M1128.1837,-503.8314C1128.1837,-496.131 1128.1837,-486.9743 1128.1837,-478.4166"/>
<polygon fill="#000000" stroke="#000000" points="1131.6838,-478.4132 1128.1837,-468.4133 1124.6838,-478.4133 1131.6838,-478.4132"/>
</g>
<!-- CK&#45;DB&#45;SqlCKTrait.sln -->
<g id="node29" class="node">
<title>CK&#45;DB&#45;SqlCKTrait.sln</title>
<ellipse fill="none" stroke="#000000" cx="952.1837" cy="-522" rx="103.0629" ry="18"/>
<text text-anchor="middle" x="952.1837" y="-517.8" font-family="Times,serif" font-size="14.00" fill="#000000">CK&#45;DB&#45;SqlCKTrait.sln</text>
</g>
<!-- CK&#45;DB&#45;SqlCKTrait.sln&#45;&gt;CK&#45;Database.sln -->
<g id="edge41" class="edge">
<title>CK&#45;DB&#45;SqlCKTrait.sln&#45;&gt;CK&#45;Database.sln</title>
<path fill="none" stroke="#000000" d="M993.004,-505.3008C1019.1651,-494.5985 1053.2244,-480.6652 1080.6099,-469.462"/>
<polygon fill="#000000" stroke="#000000" points="1082.0641,-472.6487 1089.9943,-465.6229 1079.4136,-466.1699 1082.0641,-472.6487"/>
</g>
<!-- CK&#45;Sqlite.sln -->
<g id="node30" class="node">
<title>CK&#45;Sqlite.sln</title>
<ellipse fill="none" stroke="#000000" cx="204.1837" cy="-522" rx="63.7588" ry="18"/>
<text text-anchor="middle" x="204.1837" y="-517.8" font-family="Times,serif" font-size="14.00" fill="#000000">CK&#45;Sqlite.sln</text>
</g>
<!-- CK&#45;Sqlite.sln&#45;&gt;Yodii&#45;Script.sln -->
<g id="edge43" class="edge">
<title>CK&#45;Sqlite.sln&#45;&gt;Yodii&#45;Script.sln</title>
<path fill="none" stroke="#000000" d="M217.6718,-504.3428C236.887,-479.1883 272.2638,-432.877 294.434,-403.8541"/>
<polygon fill="#000000" stroke="#000000" points="297.2961,-405.873 300.5852,-395.8017 291.7334,-401.6237 297.2961,-405.873"/>
</g>
<!-- CK&#45;Sqlite.sln&#45;&gt;CK&#45;Database.sln -->
<g id="edge42" class="edge">
<title>CK&#45;Sqlite.sln&#45;&gt;CK&#45;Database.sln</title>
<path fill="none" stroke="#000000" d="M251.3845,-509.8076C261.4895,-507.5633 272.1453,-505.4686 282.1837,-504 426.9812,-482.8159 857.3314,-461.9581 1042.2119,-453.7031"/>
<polygon fill="#000000" stroke="#000000" points="1042.5964,-457.1895 1052.4309,-453.2485 1042.2852,-450.1965 1042.5964,-457.1895"/>
</g>
<!-- CK&#45;DB&#45;Actor&#45;ActorEMail.sln -->
<g id="node31" class="node">
<title>CK&#45;DB&#45;Actor&#45;ActorEMail.sln</title>
<ellipse fill="none" stroke="#000000" cx="971.1837" cy="-594" rx="129.0874" ry="18"/>
<text text-anchor="middle" x="971.1837" y="-589.8" font-family="Times,serif" font-size="14.00" fill="#000000">CK&#45;DB&#45;Actor&#45;ActorEMail.sln</text>
</g>
<!-- CK&#45;DB&#45;Actor&#45;ActorEMail.sln&#45;&gt;CK&#45;DB.sln -->
<g id="edge44" class="edge">
<title>CK&#45;DB&#45;Actor&#45;ActorEMail.sln&#45;&gt;CK&#45;DB.sln</title>
<path fill="none" stroke="#000000" d="M1008.7891,-576.7542C1032.3344,-565.9564 1062.6896,-552.0355 1086.9,-540.9326"/>
<polygon fill="#000000" stroke="#000000" points="1088.5554,-544.024 1096.1861,-536.674 1085.6374,-537.6612 1088.5554,-544.024"/>
</g>
<!-- CK&#45;DB&#45;GitHub.sln -->
<g id="node32" class="node">
<title>CK&#45;DB&#45;GitHub.sln</title>
<ellipse fill="none" stroke="#000000" cx="449.1837" cy="-594" rx="86.8764" ry="18"/>
<text text-anchor="middle" x="449.1837" y="-589.8" font-family="Times,serif" font-size="14.00" fill="#000000">CK&#45;DB&#45;GitHub.sln</text>
</g>
<!-- CK&#45;DB&#45;GitHub.sln&#45;&gt;CK&#45;DB.sln -->
<g id="edge45" class="edge">
<title>CK&#45;DB&#45;GitHub.sln&#45;&gt;CK&#45;DB.sln</title>
<path fill="none" stroke="#000000" d="M510.9863,-581.3203C522.3246,-579.3055 534.0825,-577.4209 545.1837,-576 774.5336,-546.6449 836.3631,-579.5082 1064.1837,-540 1068.9104,-539.1803 1073.7892,-538.1523 1078.6462,-537.0053"/>
<polygon fill="#000000" stroke="#000000" points="1079.6893,-540.3519 1088.5295,-534.5122 1077.9771,-533.5645 1079.6893,-540.3519"/>
</g>
<!-- CK&#45;DB&#45;TokenStore.sln -->
<g id="node33" class="node">
<title>CK&#45;DB&#45;TokenStore.sln</title>
<ellipse fill="none" stroke="#000000" cx="1259.1837" cy="-594" rx="103.0494" ry="18"/>
<text text-anchor="middle" x="1259.1837" y="-589.8" font-family="Times,serif" font-size="14.00" fill="#000000">CK&#45;DB&#45;TokenStore.sln</text>
</g>
<!-- CK&#45;DB&#45;TokenStore.sln&#45;&gt;CK&#45;Database.sln -->
<g id="edge46" class="edge">
<title>CK&#45;DB&#45;TokenStore.sln&#45;&gt;CK&#45;Database.sln</title>
<path fill="none" stroke="#000000" d="M1247.4638,-575.8042C1234.894,-556.9188 1213.8075,-526.983 1192.1837,-504 1182.1813,-493.3689 1170.1799,-482.7703 1159.2862,-473.814"/>
<polygon fill="#000000" stroke="#000000" points="1161.2045,-470.8647 1151.2231,-467.3119 1156.8104,-476.3138 1161.2045,-470.8647"/>
</g>
<!-- CK&#45;DB&#45;TokenStore.sln&#45;&gt;CK&#45;DB.sln -->
<g id="edge47" class="edge">
<title>CK&#45;DB&#45;TokenStore.sln&#45;&gt;CK&#45;DB.sln</title>
<path fill="none" stroke="#000000" d="M1227.8059,-576.7542C1209.1172,-566.4826 1185.2867,-553.3849 1165.6192,-542.5753"/>
<polygon fill="#000000" stroke="#000000" points="1167.0745,-539.3814 1156.6251,-537.6319 1163.7029,-545.5159 1167.0745,-539.3814"/>
</g>
<!-- CK&#45;DB&#45;User&#45;SimpleInvitation.sln -->
<g id="node34" class="node">
<title>CK&#45;DB&#45;User&#45;SimpleInvitation.sln</title>
<ellipse fill="none" stroke="#000000" cx="1524.1837" cy="-594" rx="144.1551" ry="18"/>
<text text-anchor="middle" x="1524.1837" y="-589.8" font-family="Times,serif" font-size="14.00" fill="#000000">CK&#45;DB&#45;User&#45;SimpleInvitation.sln</text>
</g>
<!-- CK&#45;DB&#45;User&#45;SimpleInvitation.sln&#45;&gt;CK&#45;Database.sln -->
<g id="edge49" class="edge">
<title>CK&#45;DB&#45;User&#45;SimpleInvitation.sln&#45;&gt;CK&#45;Database.sln</title>
<path fill="none" stroke="#000000" d="M1477.2022,-576.9158C1402.4444,-549.7312 1256.9715,-496.8319 1179.549,-468.6783"/>
<polygon fill="#000000" stroke="#000000" points="1180.5934,-465.3339 1169.9993,-465.2057 1178.2011,-471.9125 1180.5934,-465.3339"/>
</g>
<!-- CK&#45;DB&#45;User&#45;SimpleInvitation.sln&#45;&gt;CK&#45;DB.sln -->
<g id="edge48" class="edge">
<title>CK&#45;DB&#45;User&#45;SimpleInvitation.sln&#45;&gt;CK&#45;DB.sln</title>
<path fill="none" stroke="#000000" d="M1442.1322,-579.0816C1365.7435,-565.1927 1253.8041,-544.8401 1186.271,-532.5613"/>
<polygon fill="#000000" stroke="#000000" points="1186.6973,-529.0815 1176.2325,-530.7361 1185.4451,-535.9686 1186.6973,-529.0815"/>
</g>
<!-- CK&#45;DB&#45;User&#45;UserPassword.sln -->
<g id="node35" class="node">
<title>CK&#45;DB&#45;User&#45;UserPassword.sln</title>
<ellipse fill="none" stroke="#000000" cx="689.1837" cy="-594" rx="134.8045" ry="18"/>
<text text-anchor="middle" x="689.1837" y="-589.8" font-family="Times,serif" font-size="14.00" fill="#000000">CK&#45;DB&#45;User&#45;UserPassword.sln</text>
</g>
<!-- CK&#45;DB&#45;User&#45;UserPassword.sln&#45;&gt;CK&#45;DB.sln -->
<g id="edge50" class="edge">
<title>CK&#45;DB&#45;User&#45;UserPassword.sln&#45;&gt;CK&#45;DB.sln</title>
<path fill="none" stroke="#000000" d="M786.554,-581.4537C879.5067,-569.209 1012.7842,-550.8798 1064.1837,-540 1068.6228,-539.0604 1073.2079,-537.9848 1077.7893,-536.8373"/>
<polygon fill="#000000" stroke="#000000" points="1078.9637,-540.1481 1087.7549,-534.235 1077.195,-533.3752 1078.9637,-540.1481"/>
</g>
<!-- CK&#45;AspNet&#45;Auth.sln -->
<g id="node36" class="node">
<title>CK&#45;AspNet&#45;Auth.sln</title>
<ellipse fill="none" stroke="#000000" cx="1817.1837" cy="-594" rx="93.2376" ry="18"/>
<text text-anchor="middle" x="1817.1837" y="-589.8" font-family="Times,serif" font-size="14.00" fill="#000000">CK&#45;AspNet&#45;Auth.sln</text>
</g>
<!-- CK&#45;AspNet&#45;Auth.sln&#45;&gt;CK&#45;Auth&#45;Abstractions.sln -->
<g id="edge52" class="edge">
<title>CK&#45;AspNet&#45;Auth.sln&#45;&gt;CK&#45;Auth&#45;Abstractions.sln</title>
<path fill="none" stroke="#000000" d="M1817.6884,-575.8314C1817.9023,-568.131 1818.1566,-558.9743 1818.3943,-550.4166"/>
<polygon fill="#000000" stroke="#000000" points="1821.8931,-550.5066 1818.6722,-540.4133 1814.8958,-550.3122 1821.8931,-550.5066"/>
</g>
<!-- CK&#45;AspNet&#45;Auth.sln&#45;&gt;CK&#45;ActivityMonitor.sln -->
<g id="edge53" class="edge">
<title>CK&#45;AspNet&#45;Auth.sln&#45;&gt;CK&#45;ActivityMonitor.sln</title>
<path fill="none" stroke="#000000" d="M1886.7376,-581.9028C1956.0334,-565.3867 2052.1837,-528.3527 2052.1837,-450 2052.1837,-450 2052.1837,-450 2052.1837,-306 2052.1837,-262.5807 2049.0906,-241.8213 2014.1837,-216 1981.6772,-191.9544 1744.4025,-175.3953 1600.1918,-167.4305"/>
<polygon fill="#000000" stroke="#000000" points="1600.1497,-163.9231 1589.9736,-166.8719 1599.7676,-170.9127 1600.1497,-163.9231"/>
</g>
<!-- CK&#45;AspNet&#45;Auth.sln&#45;&gt;CK&#45;AspNet.sln -->
<g id="edge54" class="edge">
<title>CK&#45;AspNet&#45;Auth.sln&#45;&gt;CK&#45;AspNet.sln</title>
<path fill="none" stroke="#000000" d="M1757.1547,-580.1677C1735.0141,-572.0706 1711.7921,-559.4568 1697.1837,-540 1651.0203,-478.5156 1654.7597,-381.6527 1660.0783,-334.1567"/>
<polygon fill="#000000" stroke="#000000" points="1663.581,-334.3486 1661.3271,-323.9963 1656.6333,-333.4946 1663.581,-334.3486"/>
</g>
<!-- CK&#45;AspNet&#45;Auth.sln&#45;&gt;CK&#45;DB.sln -->
<g id="edge51" class="edge">
<title>CK&#45;AspNet&#45;Auth.sln&#45;&gt;CK&#45;DB.sln</title>
<path fill="none" stroke="#000000" d="M1740.2108,-583.6844C1719.7414,-581.0558 1697.6372,-578.3203 1677.1837,-576 1501.459,-556.0657 1293.5952,-536.793 1191.3878,-527.5994"/>
<polygon fill="#000000" stroke="#000000" points="1191.5097,-524.0964 1181.2368,-526.6882 1190.8838,-531.0683 1191.5097,-524.0964"/>
</g>
<!-- CK&#45;DB&#45;GuestActor.sln -->
<g id="node37" class="node">
<title>CK&#45;DB&#45;GuestActor.sln</title>
<ellipse fill="none" stroke="#000000" cx="1477.1837" cy="-666" rx="102.464" ry="18"/>
<text text-anchor="middle" x="1477.1837" y="-661.8" font-family="Times,serif" font-size="14.00" fill="#000000">CK&#45;DB&#45;GuestActor.sln</text>
</g>
<!-- CK&#45;DB&#45;GuestActor.sln&#45;&gt;CK&#45;Database.sln -->
<g id="edge56" class="edge">
<title>CK&#45;DB&#45;GuestActor.sln&#45;&gt;CK&#45;Database.sln</title>
<path fill="none" stroke="#000000" d="M1564.1947,-656.4211C1633.6602,-645.194 1713.7749,-621.9406 1677.1837,-576 1619.8631,-504.0337 1350.2037,-469.7885 1211.3217,-456.6931"/>
<polygon fill="#000000" stroke="#000000" points="1211.4267,-453.1879 1201.1462,-455.7495 1210.7802,-460.158 1211.4267,-453.1879"/>
</g>
<!-- CK&#45;DB&#45;GuestActor.sln&#45;&gt;CK&#45;SqlServer&#45;Dapper.sln -->
<g id="edge57" class="edge">
<title>CK&#45;DB&#45;GuestActor.sln&#45;&gt;CK&#45;SqlServer&#45;Dapper.sln</title>
<path fill="none" stroke="#000000" d="M1573.6258,-659.7679C1695.6751,-651.0373 1893.2329,-633.7655 1919.1837,-612 1956.7159,-580.5209 1952.7885,-551.5913 1941.1837,-504 1938.9297,-494.7566 1934.7943,-485.3312 1930.3809,-476.9966"/>
<polygon fill="#000000" stroke="#000000" points="1933.3313,-475.1033 1925.3654,-468.118 1927.2365,-478.5463 1933.3313,-475.1033"/>
</g>
<!-- CK&#45;DB&#45;GuestActor.sln&#45;&gt;CK&#45;DB.sln -->
<g id="edge55" class="edge">
<title>CK&#45;DB&#45;GuestActor.sln&#45;&gt;CK&#45;DB.sln</title>
<path fill="none" stroke="#000000" d="M1377.1607,-661.8182C1292.3622,-656.1454 1179.5086,-642.8756 1147.1837,-612 1130.7386,-596.2923 1126.7101,-570.2105 1126.3729,-550.1568"/>
<polygon fill="#000000" stroke="#000000" points="1129.8742,-550.0664 1126.4981,-540.0239 1122.8747,-549.9798 1129.8742,-550.0664"/>
</g>
<!-- CK&#45;DB&#45;GuestActor.sln&#45;&gt;CK&#45;DB&#45;TokenStore.sln -->
<g id="edge59" class="edge">
<title>CK&#45;DB&#45;GuestActor.sln&#45;&gt;CK&#45;DB&#45;TokenStore.sln</title>
<path fill="none" stroke="#000000" d="M1428.8024,-650.0209C1395.7807,-639.1146 1351.8754,-624.6138 1317.0079,-613.0979"/>
<polygon fill="#000000" stroke="#000000" points="1318.0229,-609.7472 1307.4297,-609.9345 1315.8275,-616.3941 1318.0229,-609.7472"/>
</g>
<!-- CK&#45;DB&#45;GuestActor.sln&#45;&gt;CK&#45;AspNet&#45;Auth.sln -->
<g id="edge58" class="edge">
<title>CK&#45;DB&#45;GuestActor.sln&#45;&gt;CK&#45;AspNet&#45;Auth.sln</title>
<path fill="none" stroke="#000000" d="M1542.7391,-652.1177C1600.3825,-639.9108 1684.1835,-622.1647 1743.998,-609.4981"/>
<polygon fill="#000000" stroke="#000000" points="1745.0705,-612.8487 1754.1285,-607.3529 1743.6203,-606.0006 1745.0705,-612.8487"/>
</g>
<!-- CK&#45;DB&#45;GuestActor&#45;Acl.sln -->
<g id="node38" class="node">
<title>CK&#45;DB&#45;GuestActor&#45;Acl.sln</title>
<ellipse fill="none" stroke="#000000" cx="334.1837" cy="-738" rx="119.7772" ry="18"/>
<text text-anchor="middle" x="334.1837" y="-733.8" font-family="Times,serif" font-size="14.00" fill="#000000">CK&#45;DB&#45;GuestActor&#45;Acl.sln</text>
</g>
<!-- CK&#45;DB&#45;GuestActor&#45;Acl.sln&#45;&gt;CK&#45;Database.sln -->
<g id="edge60" class="edge">
<title>CK&#45;DB&#45;GuestActor&#45;Acl.sln&#45;&gt;CK&#45;Database.sln</title>
<path fill="none" stroke="#000000" d="M326.0326,-719.8016C312.4678,-686.4191 290.2069,-615.2296 327.1837,-576 376.214,-523.9825 851.6837,-475.1895 1046.0357,-457.25"/>
<polygon fill="#000000" stroke="#000000" points="1046.5562,-460.7171 1056.194,-456.3169 1045.9158,-453.7464 1046.5562,-460.7171"/>
</g>
<!-- CK&#45;DB&#45;GuestActor&#45;Acl.sln&#45;&gt;CK&#45;DB.sln -->
<g id="edge61" class="edge">
<title>CK&#45;DB&#45;GuestActor&#45;Acl.sln&#45;&gt;CK&#45;DB.sln</title>
<path fill="none" stroke="#000000" d="M329.7645,-719.9181C322.6962,-686.0795 313.3843,-613.2496 353.1837,-576 410.936,-521.9476 986.123,-552.788 1064.1837,-540 1068.9854,-539.2134 1073.9412,-538.1977 1078.8702,-537.0498"/>
<polygon fill="#000000" stroke="#000000" points="1080.0423,-540.3644 1088.8917,-534.5387 1078.3409,-533.5743 1080.0423,-540.3644"/>
</g>
<!-- CK&#45;DB&#45;GuestActor&#45;Acl.sln&#45;&gt;CK&#45;DB&#45;GuestActor.sln -->
<g id="edge62" class="edge">
<title>CK&#45;DB&#45;GuestActor&#45;Acl.sln&#45;&gt;CK&#45;DB&#45;GuestActor.sln</title>
<path fill="none" stroke="#000000" d="M418.3712,-725.1972C433.2741,-723.2325 448.6655,-721.3969 463.1837,-720 790.1427,-688.5409 1178.3051,-674.2699 1365.3834,-668.832"/>
<polygon fill="#000000" stroke="#000000" points="1365.6085,-672.327 1375.5036,-668.5407 1365.4071,-665.3299 1365.6085,-672.327"/>
</g>
</g>
</svg>
